<?xml version="1.0" encoding="utf-8"?>
<!-- Generator: Adobe Illustrator 24.3.0, SVG Export Plug-In . SVG Version: 6.00 Build 0)  -->
<svg version="1.1" xmlns="http://www.w3.org/2000/svg" xmlns:xlink="http://www.w3.org/1999/xlink" x="0px" y="0px"
	 viewBox="0 0 60 60" style="enable-background:new 0 0 60 60;" xml:space="preserve">
<style type="text/css">
	.st0{display:none;}
	.st1{display:inline;fill:#FFFFFF;}
	.st2{display:inline;}
	.st3{fill:#FFFFFF;}
</style>
<g id="Layer_1" class="st0">
	<path id="패스_33_4_" class="st1" d="M30,1C13.98,1,1,13.98,1,30c0,16.02,12.98,29,29,29c16.02,0,29-12.98,29-29S46.02,1,30,1
		L30,1z M41.54,31.88L26.5,40.11c-1.44,0.79-3.25,0.26-4.04-1.18C22.22,38.49,22.1,38,22.1,37.5V21.42c0-1.64,1.33-2.97,2.97-2.97
		c0.48,0,0.95,0.12,1.38,0.34l15.04,7.86c1.46,0.75,2.03,2.55,1.27,4c-0.27,0.53-0.7,0.96-1.22,1.25V31.88z"/>
</g>
<g id="Layer_2" class="st0">
	<g class="st2">
		<path class="st3" d="M30,1C13.98,1,1,13.98,1,30c0,16.02,12.98,29,29,29s29-12.98,29-29C59,13.98,46.02,1,30,1z M43.73,42.57
			h-9.28L25.75,30l0.19,12.57h-9.67V17.43h9.28l8.89,12.76V17.43h9.28V42.57z"/>
	</g>
</g>
<g id="Layer_3" class="st0">
	<g id="그룹_80_2_" transform="translate(-941.145 -68.013)" class="st2">
		<path id="패스_34_2_" class="st3" d="M971.14,89.27c-4.62,0-8.36,3.75-8.36,8.37c0,4.62,3.75,8.36,8.37,8.36
			c4.62,0,8.36-3.74,8.36-8.36C979.51,93.02,975.77,89.27,971.14,89.27C971.15,89.27,971.15,89.27,971.14,89.27z"/>
		<path id="패스_35_2_" class="st3" d="M971.14,69.01c-16.02,0-29,12.98-29,29c0,16.02,12.98,29,29,29c16.02,0,29-12.98,29-29
			S987.16,69.01,971.14,69.01L971.14,69.01z M971.14,112.01c-7.93,0-14.36-6.44-14.36-14.37c0-7.93,6.44-14.36,14.37-14.36
			c7.93,0,14.36,6.44,14.36,14.37C985.52,105.58,979.08,112,971.14,112.01C971.15,112,971.14,112,971.14,112.01L971.14,112.01z
			 M985.52,86.28c-1.66,0-3-1.35-3-3.01c0-1.66,1.35-3,3.01-3c1.66,0,3,1.34,3,3C988.53,84.93,987.18,86.28,985.52,86.28
			C985.52,86.28,985.52,86.28,985.52,86.28L985.52,86.28z"/>
	</g>
</g>
<g id="Layer_4" class="st0">
	<g class="st2">
		<path class="st3" d="M30,1C13.98,1,1,13.98,1,30c0,16.02,12.98,29,29,29c16.02,0,29-12.98,29-29C59,13.98,46.02,1,30,1z M30,42.96
			c-1.19,0-2.35-0.09-3.48-0.26c-2.08,1.41-6.89,4.68-7.21,4.9c-0.41,0.27-1.04,0.29-0.78-0.73c0.21-0.82,1.23-4.66,1.63-6.12
			c-5.34-2.61-8.89-7.28-8.89-12.6c0-8.18,8.39-14.82,18.74-14.82c10.35,0,18.74,6.63,18.74,14.82C48.74,36.32,40.35,42.96,30,42.96
			z"/>
		<path class="st3" d="M23.39,24.71c0-0.51-0.42-0.93-0.93-0.93h-5.48c-0.52,0-0.93,0.42-0.93,0.93c0,0.51,0.42,0.93,0.93,0.93h1.78
			v6.56c0,0.24,0.1,0.47,0.27,0.64c0.17,0.17,0.4,0.27,0.64,0.27h0.2c0.24,0,0.47-0.1,0.64-0.27c0.17-0.17,0.27-0.4,0.27-0.64v-6.56
			h1.68C22.97,25.64,23.39,25.23,23.39,24.71z"/>
		<path class="st3" d="M35.63,31.36h-2.55v-6.71c0-0.56-0.45-1.01-1.01-1.01c-0.56,0-1.01,0.45-1.01,1.01v7.23
			c0,0.06,0.01,0.11,0.02,0.16c-0.01,0.05-0.02,0.11-0.02,0.16c0,0.47,0.38,0.85,0.85,0.85h3.72c0.47,0,0.85-0.38,0.85-0.85
			C36.47,31.74,36.1,31.36,35.63,31.36z"/>
		<path class="st3" d="M40.93,27.94l2.57-2.57c0.35-0.35,0.35-0.91,0-1.26c-0.35-0.35-0.91-0.35-1.26,0l-3.18,3.18v-2.63
			c0-0.56-0.45-1.01-1.01-1.01c-0.56,0-1.01,0.45-1.01,1.01v7.45c0,0.56,0.45,1.01,1.01,1.01c0.56,0,1.01-0.45,1.01-1.01v-2.3
			l0.58-0.58l2.69,3.53c0.3,0.4,0.87,0.48,1.27,0.18c0.4-0.3,0.48-0.87,0.18-1.27L40.93,27.94z"/>
		<path class="st3" d="M27.57,24.44C27.57,24.44,27.56,24.44,27.57,24.44c-0.18-0.46-0.69-0.8-1.29-0.8c-0.67,0-1.22,0.41-1.33,0.94
			c-0.02,0.04-0.04,0.08-0.05,0.12l-2.69,7.2c-0.17,0.47,0.08,0.99,0.55,1.16c0.47,0.17,0.99-0.08,1.16-0.55l0.46-1.33h3.74
			l0.46,1.33c0.17,0.47,0.68,0.72,1.15,0.55c0.47-0.17,0.72-0.68,0.55-1.16L27.57,24.44z M24.98,29.49l1.26-3.58
			c0.01,0,0.03,0,0.04,0l1.26,3.58H24.98z"/>
	</g>
</g>
<g id="Layer_5">
	<path id="패스_32_4_" class="st3" d="M30,1C13.98,1,1,13.98,1,30s12.98,29,29,29c16.02,0,29-12.98,29-29c0,0,0,0,0,0
		C59,13.98,46.02,1,30,1z M24.44,40.49h-5.7V22.16h5.7V40.49z M21.59,19.91h-0.04c-1.69-0.01-3.06-1.39-3.05-3.08
		c0.01-1.69,1.39-3.06,3.08-3.05c1.69,0.01,3.06,1.39,3.05,3.08C24.62,18.54,23.26,19.9,21.59,19.91z M46.41,40.49h-5.7V30.33
		c0-2.36-0.83-3.97-2.89-3.97c-1.33,0.02-2.5,0.87-2.93,2.14c-0.15,0.46-0.21,0.94-0.19,1.43v10.57h-5.7V28.01
		c0-2.29-0.08-4.21-0.15-5.85h4.96l0.26,2.55h0.11c1.25-1.9,3.39-3.02,5.66-2.96c3.75,0,6.56,2.53,6.56,7.91L46.41,40.49z"/>
</g>
</svg>
