<?xml version="1.0" encoding="utf-8"?>
<!-- Generator: Adobe Illustrator 24.3.0, SVG Export Plug-In . SVG Version: 6.00 Build 0)  -->
<svg version="1.1" xmlns="http://www.w3.org/2000/svg" xmlns:xlink="http://www.w3.org/1999/xlink" x="0px" y="0px"
	 viewBox="0 0 60 60" style="enable-background:new 0 0 60 60;" xml:space="preserve">
<style type="text/css">
	.st0{display:none;}
	.st1{display:inline;fill:#386DB3;}
	.st2{display:inline;}
	.st3{fill:#00C63B;}
	.st4{display:inline;fill:#1076A7;}
	.st5{display:inline;fill:#E42320;}
	.st6{fill:url(#SVGID_1_);}
	.st7{fill:#FFFFFF;}
	.st8{fill:#FAE300;}
	.st9{fill:#391B1B;}
</style>
<g id="Layer_1" class="st0">
	<path id="패스_30_2_" class="st1" d="M30,1C13.98,1,1,13.98,1,30c0,16.02,12.98,29,29,29c16.02,0,29-12.98,29-29l0,0
		C59,13.98,46.02,1,30,1z M38.95,18.49H35.7c-2.53,0-3.03,1.21-3.03,2.98v3.91h6.03l-0.79,6.13h-5.28v15.72h-6.33V31.51h-5.29v-6.13
		h5.29v-4.52c-0.41-4.05,2.55-7.67,6.61-8.08c0.42-0.04,0.85-0.05,1.27-0.02c1.58-0.01,3.16,0.07,4.73,0.24L38.95,18.49z"/>
</g>
<g id="Layer_2" class="st0">
	<g class="st2">
		<path class="st3" d="M30,1C13.98,1,1,13.98,1,30c0,16.02,12.98,29,29,29s29-12.98,29-29C59,13.98,46.02,1,30,1z M43.73,42.57
			h-9.28L25.75,30l0.19,12.57h-9.67V17.43h9.28l8.89,12.76V17.43h9.28V42.57z"/>
	</g>
</g>
<g id="Layer_3" class="st0">
	<path id="패스_32_2_" class="st4" d="M30,1C13.98,1,1,13.98,1,30s12.98,29,29,29c16.02,0,29-12.98,29-29c0,0,0,0,0,0
		C59,13.98,46.02,1,30,1z M24.44,40.49h-5.7V22.16h5.7V40.49z M21.59,19.91h-0.04c-1.69-0.01-3.06-1.39-3.05-3.08
		c0.01-1.69,1.39-3.06,3.08-3.05c1.69,0.01,3.06,1.39,3.05,3.08C24.62,18.54,23.26,19.9,21.59,19.91z M46.41,40.49h-5.7V30.33
		c0-2.36-0.83-3.97-2.89-3.97c-1.33,0.02-2.5,0.87-2.93,2.14c-0.15,0.46-0.21,0.94-0.19,1.43v10.57h-5.7V28.01
		c0-2.29-0.08-4.21-0.15-5.85h4.96l0.26,2.55h0.11c1.25-1.9,3.39-3.02,5.66-2.96c3.75,0,6.56,2.53,6.56,7.91L46.41,40.49z"/>
</g>
<g id="Layer_4" class="st0">
	<path id="패스_33_2_" class="st5" d="M30,1C13.98,1,1,13.98,1,30c0,16.02,12.98,29,29,29c16.02,0,29-12.98,29-29S46.02,1,30,1
		L30,1z M41.54,31.88L26.5,40.11c-1.44,0.79-3.25,0.26-4.04-1.18C22.22,38.49,22.1,38,22.1,37.5V21.42c0-1.64,1.33-2.97,2.97-2.97
		c0.48,0,0.95,0.12,1.38,0.34l15.04,7.86c1.46,0.75,2.03,2.55,1.27,4c-0.27,0.53-0.7,0.96-1.22,1.25V31.88z"/>
</g>
<g id="Layer_5">
	<g>
		
			<linearGradient id="SVGID_1_" gradientUnits="userSpaceOnUse" x1="-210.5107" y1="538.6966" x2="-152.5107" y2="538.6966" gradientTransform="matrix(0.7071 -0.7071 0.7071 0.7071 -222.5685 -479.2635)">
			<stop  offset="0" style="stop-color:#FFDD55"/>
			<stop  offset="0.5" style="stop-color:#FF543E"/>
			<stop  offset="1" style="stop-color:#C837AB"/>
		</linearGradient>
		<circle class="st6" cx="30" cy="30" r="29"/>
		<g>
			<circle class="st7" cx="44.38" cy="15.26" r="3"/>
		</g>
		<path class="st7" d="M30,15.63C30,15.63,30,15.63,30,15.63c-7.95,0-14.38,6.44-14.37,14.37c0,7.94,6.44,14.37,14.37,14.36
			c7.93,0,14.36-6.43,14.36-14.36C44.37,22.07,37.94,15.63,30,15.63z M30,38.36c-4.62,0-8.37-3.74-8.37-8.36
			c0-4.62,3.74-8.37,8.36-8.37c0,0,0,0,0.01,0c4.62,0,8.36,3.75,8.36,8.37C38.36,34.62,34.62,38.36,30,38.36z"/>
	</g>
</g>
<g id="Layer_6" class="st0">
	<g class="st2">
		<circle class="st8" cx="231.08" cy="29.39" r="29"/>
		<g>
			<path class="st9" d="M231.08,12.72c-10.35,0-18.74,6.63-18.74,14.82c0,5.33,3.55,9.99,8.89,12.6c-0.39,1.46-1.42,5.3-1.63,6.12
				c-0.25,1.02,0.37,1.01,0.78,0.73c0.32-0.21,5.14-3.49,7.21-4.9c1.13,0.17,2.29,0.26,3.48,0.26c10.35,0,18.74-6.63,18.74-14.82
				C249.82,19.35,241.43,12.72,231.08,12.72"/>
			<g>
				<path class="st8" d="M223.54,23.17h-5.48c-0.52,0-0.93,0.42-0.93,0.93c0,0.51,0.42,0.93,0.93,0.93h1.78v6.56
					c0,0.24,0.1,0.47,0.27,0.64c0.17,0.17,0.4,0.27,0.64,0.27h0.2c0.24,0,0.47-0.1,0.64-0.27c0.17-0.17,0.27-0.4,0.27-0.64v-6.56
					h1.68c0.52,0,0.93-0.42,0.93-0.93C224.47,23.59,224.05,23.17,223.54,23.17z"/>
				<path class="st8" d="M236.71,30.76h-2.55v-6.7c0-0.56-0.45-1.01-1.01-1.01c-0.56,0-1.01,0.45-1.01,1.01v7.23
					c0,0.06,0.01,0.11,0.02,0.16c-0.01,0.05-0.02,0.11-0.02,0.16c0,0.47,0.38,0.85,0.85,0.85h3.72c0.47,0,0.85-0.38,0.85-0.85
					C237.55,31.14,237.18,30.76,236.71,30.76z"/>
				<path class="st8" d="M244.85,31.06l-2.84-3.73l2.57-2.57c0.35-0.35,0.35-0.91,0-1.26c-0.35-0.35-0.91-0.35-1.26,0l-3.18,3.18
					v-2.63c0-0.56-0.45-1.01-1.01-1.01c-0.56,0-1.01,0.45-1.01,1.01v7.45c0,0.56,0.45,1.01,1.01,1.01c0.56,0,1.01-0.45,1.01-1.01
					v-2.3l0.58-0.58l2.69,3.53c0.3,0.4,0.87,0.48,1.27,0.18C245.07,32.03,245.15,31.46,244.85,31.06z"/>
				<path class="st8" d="M231.38,31.31l-2.73-7.47c0,0-0.01-0.01-0.01-0.01c-0.18-0.46-0.68-0.79-1.28-0.79
					c-0.67,0-1.22,0.41-1.33,0.94c-0.02,0.04-0.04,0.08-0.05,0.12l-2.69,7.2c-0.17,0.47,0.08,0.99,0.55,1.16
					c0.47,0.17,0.99-0.08,1.16-0.55l0.46-1.33h3.74l0.46,1.33c0.17,0.47,0.68,0.72,1.15,0.55C231.3,32.3,231.55,31.78,231.38,31.31z
					 M226.06,28.89l1.26-3.58c0.01,0,0.03,0,0.04,0l1.26,3.58H226.06z"/>
			</g>
		</g>
	</g>
</g>
</svg>
