<?xml version="1.0" encoding="utf-8"?>
<!-- Generator: Adobe Illustrator 24.3.0, SVG Export Plug-In . SVG Version: 6.00 Build 0)  -->
<svg version="1.1" xmlns="http://www.w3.org/2000/svg" xmlns:xlink="http://www.w3.org/1999/xlink" x="0px" y="0px"
	 viewBox="0 0 60 60" style="enable-background:new 0 0 60 60;" xml:space="preserve">
<style type="text/css">
	.st0{display:none;}
	.st1{display:inline;fill:#FFFFFF;}
	.st2{fill:#FFFFFF;}
</style>
<g id="Layer_1" class="st0">
	<path id="패스_33_4_" class="st1" d="M30,1C13.98,1,1,13.98,1,30c0,16.02,12.98,29,29,29c16.02,0,29-12.98,29-29S46.02,1,30,1
		L30,1z M41.54,31.88L26.5,40.11c-1.44,0.79-3.25,0.26-4.04-1.18C22.22,38.49,22.1,38,22.1,37.5V21.42c0-1.64,1.33-2.97,2.97-2.97
		c0.48,0,0.95,0.12,1.38,0.34l15.04,7.86c1.46,0.75,2.03,2.55,1.27,4c-0.27,0.53-0.7,0.96-1.22,1.25V31.88z"/>
</g>
<g id="Layer_2">
	<g>
		<path class="st2" d="M30,1C13.98,1,1,13.98,1,30c0,16.02,12.98,29,29,29s29-12.98,29-29C59,13.98,46.02,1,30,1z M43.73,42.57
			h-9.28L25.75,30l0.19,12.57h-9.67V17.43h9.28l8.89,12.76V17.43h9.28V42.57z"/>
	</g>
</g>
</svg>
